# xmcd CD database file
# Copyright (C) 1997 Ti Kan
#
# Track frame offsets:
#  150
#  15612
#  29912
#  45330
#  66147
#  85410
#  102837
#  116567
#  131897
#  146445
#  166490
#  178970
#  195315
#  214842
#  230592
#  241222
#  253987
#  269770
#  283945
#  299787
#
# Disc length: 4165 seconds
#
# Revision: 1
# Processed by: cddbd v1.4b41PL1 Copyright (c) Steve Scherf et al.
# Submitted via: CDWizzard Release:4.24
#
DISCID=43104314
DTITLE=Joan Baez - The Joan Baez Country Music Album
DYEAR=1900
DGENRE=
TTITLE0=The Night They Drove Old Dixie Down
TTITLE1=Brand New Tennessee Waltz
TTITLE2=Outside the Nashville City Limits
TTITLE3=Ghetto
TTITLE4=My Home's Across The Blue Ridge Mountains
TTITLE5=Rock Salt and Nails
TTITLE6=Help Me Make It Through the Night
TTITLE7=Long Black Veil
TTITLE8=I Still Miss Someone
TTITLE9=San Francisco Mabel Joy
TTITLE10=Take Me Back to the Sweet Sunny South
TTITLE11=Hickory Wind
TTITLE12=Will the Circle Be Unbroken
TTITLE13=Tramp on the Street
TTITLE14=Carry It On
TTITLE15=Gospel Ship
TTITLE16=Little Moses
TTITLE17=Banks of the Ohio
TTITLE18=Engine 143
TTITLE19=Pal of Mine
EXTD=
EXTT0=
EXTT1=
EXTT2=
EXTT3=
EXTT4=
EXTT5=
EXTT6=
EXTT7=
EXTT8=
EXTT9=
EXTT10=
EXTT11=
EXTT12=
EXTT13=
EXTT14=
EXTT15=
EXTT16=
EXTT17=
EXTT18=
EXTT19=
PLAYORDER=
